<svg  xmlns="http://www.w3.org/2000/svg" viewBox="0 0 512 512" xml:space="preserve"><path d="M453.047 429.766c-2.016-7.516-4.844-14.25-8.344-20.25-6.109-10.516-14.234-18.703-23.188-25.188-6.719-4.875-13.891-8.844-21.188-12.266-4.047-1.891-8.125-3.625-12.172-5.25-.969-11.328-19.922-20.547-19.516-53.688.219-17.031 16.875-50.547-4.016-77.625a55 55 0 0 0 7.234-9.156c4.313-6.813 7.781-15.266 10.125-25.719.672-2.906.969-5.781.969-8.625.016-5.922-1.375-11.563-3.734-16.625-1.625-3.5-3.719-6.719-6.125-9.625a227 227 0 0 0 4.063-17.875c1.844-9.969 3.375-21.922 3.375-34.516 0-8.109-.641-16.5-2.297-24.781-1.234-6.203-3.047-12.359-5.609-18.266-3.859-8.875-9.453-17.219-17.234-24.109-7.203-6.375-16.234-11.453-27.141-14.719-4.609-5.516-9.359-10.203-14.266-14.109-8.297-6.625-17.031-11.031-25.922-13.719S270.172 0 261.203 0c-4.734 0-9.469.281-14.203.703-4.453.391-8.141.859-11.438 1.406a79 79 0 0 0-12.938 3.281c-3.953 1.375-7.734 2.953-12.719 4.922-1.891.734-4.375 1.828-7.375 3.344-5.219 2.641-11.938 6.531-19.156 11.906-10.796 8.063-22.733 19.438-32.03 34.844a109.5 109.5 0 0 0-11.422 26.156c-2.797 9.734-4.422 20.5-4.422 32.266 0 7.328.641 15.078 2 23.188 0 .563.031 1.094.047 1.641.063 1.016.172 2.063.281 3.156.172 1.625.359 3.281.516 4.688.063.703.125 1.328.172 1.813.016.25.031.453.047.594v1.157l2 8.813c-2.875 3.125-5.344 6.609-7.266 10.453-2.656 5.328-4.25 11.328-4.25 17.703 0 2.813.313 5.703.969 8.594 1.578 6.969 3.641 13.063 6.109 18.359 3.297 7.047 7.344 12.703 11.859 17.125-20.203 26.953-3.781 60.109-3.563 77.016.406 32.719-18.063 42.125-19.469 53.25-.328.156-.656.266-.984.406-8.266 3.297-16.641 7.047-24.625 11.75-5.969 3.531-11.75 7.594-17.031 12.453-7.938 7.266-14.781 16.313-19.516 27.516-4.75 11.219-7.375 24.5-7.359 40.172 0 2.203.453 4.328 1.219 6.266.719 1.828 1.703 3.5 2.844 5.094 2.188 2.969 5 5.609 8.453 8.172 6.031 4.453 14.078 8.641 24.469 12.563 15.594 5.875 36.5 11.156 63.516 15C182.953 509.594 216.078 512 256 512c34.609 0 64.109-1.797 88.953-4.781 18.625-2.234 34.625-5.125 48.219-8.453 10.203-2.484 19.031-5.203 26.625-8.078 5.672-2.156 10.656-4.406 14.984-6.703 3.25-1.734 6.125-3.516 8.672-5.344 3.797-2.75 6.859-5.594 9.188-8.813 1.156-1.609 2.109-3.328 2.813-5.188s1.125-3.875 1.109-5.969c0-10.733-1.219-20.327-3.516-28.905M146.328 196.938h-.016a22.6 22.6 0 0 1-.547-4.906c0-3.578.875-6.984 2.484-10.234 1.344-2.688 3.234-5.234 5.5-7.547 3.844 5.813 7.016 10.406 8.172 11.563 3.766 3.75 4.297-5.109 2.5-15.063-3.281-18.297 5.594-10.016 28.172-53.906 45.125 10.031 124.016-37.938 124.016-37.938s.938 21.891 15.984 41.953C346.875 139.891 355 184.563 355 184.563s1.953-3.688 4.828-8.625c1.734 2.031 3.172 4.219 4.234 6.484 1.422 3.063 2.188 6.25 2.188 9.578 0 1.609-.172 3.25-.563 4.938-1.344 5.953-3.047 10.875-4.953 14.953-2.875 6.109-6.172 10.328-9.625 13.422s-7.125 5.094-10.953 6.5l-3.703 1.344-1.297 3.719c-4.016 11.313-7.922 20.406-11.844 27.703s-7.828 12.766-11.875 17.047l-1.609 1.703-.484 2.266c-1.828 8.344-3.641 17.563-3.625 28.469 0 3.375.156 6.875.547 10.578.453 4.328 1.438 8.391 2.938 12.141.063.188.141.344.203.531L258.609 364l-56.266-26.109c1.734-4.047 2.906-8.484 3.406-13.25v-.016c.375-3.688.547-7.188.547-10.563 0-10.906-1.797-20.156-3.625-28.5l-.5-2.25-1.594-1.688c-4.047-4.297-7.969-9.766-11.875-17.063-3.922-7.281-7.828-16.375-11.828-27.688l-1.328-3.688-3.672-1.375a33.6 33.6 0 0 1-7.438-3.75c-3.609-2.422-7.016-5.719-10.156-10.656-3.124-4.92-5.936-11.529-7.952-20.466m130.156 170.906 38.828-20.422a49 49 0 0 0 3.422 3.938c2.578 2.641 5.391 4.953 8.391 7.047l-50.063 78.172-5.563-38.375 14.188-15.047zm-32.265 30.359-5.25 36.125-54.766-75.453a71 71 0 0 0 4.047-2.969c2.922-2.344 5.641-4.984 8.016-7.938l42.922 19.922-9.156 15.266zm195.203 61.328c-.563.938-1.875 2.5-4.078 4.281-1.922 1.563-4.516 3.281-7.781 5.063-5.703 3.125-13.453 6.391-23.297 9.469-14.75 4.656-34.219 8.906-58.781 11.969-24.578 3.063-54.25 4.969-89.484 4.969-34.031 0-62.891-1.766-86.953-4.656-18.063-2.172-33.422-4.969-46.25-8.094-9.625-2.344-17.828-4.891-24.656-7.484-5.125-1.938-9.469-3.906-13.047-5.813-2.688-1.438-4.938-2.859-6.766-4.172-2.766-1.969-4.516-3.75-5.375-4.984-.438-.609-.656-1.047-.75-1.297-.031-.094-.047-.141-.047-.172 0-9.359 1.047-17.359 2.891-24.328 1.609-6.094 3.828-11.359 6.516-16.047 4.719-8.172 10.906-14.594 18.266-20.016 5.5-4.063 11.641-7.547 18.172-10.656 9.781-4.641 20.375-8.438 30.781-12.266 8.75-3.234 17.359-6.484 25.266-10.5L260.578 484l76.609-119.594c3.828 1.969 7.813 3.766 11.922 5.469 10.266 4.219 21.219 7.859 31.781 12.047 7.938 3.141 15.641 6.563 22.641 10.641 5.266 3.063 10.141 6.484 14.484 10.391 6.5 5.891 11.844 12.875 15.672 21.797 3.828 8.938 6.141 19.906 6.156 33.875-.015.077-.109.405-.421.905"/><path d="M318.625 449.188H385.5v11.719h-66.875z"/></svg>