<svg xmlns="http://www.w3.org/2000/svg" viewBox="0 0 512 512" xml:space="preserve"><path d="M430.902 405.469c-10.648-18.16-27.114-29.081-42.961-36.368-15.854-7.28-31.537-11.213-40.981-14.778-7.457-2.776-15.615-7.117-21.419-11.798-2.912-2.327-5.212-4.736-6.607-6.832-1.422-2.123-1.864-3.756-1.857-4.844v-22.324c10.002-11.125 24.379-28.374 30.278-55.719 2.069-.932 4.11-1.98 6.076-3.347 4.892-3.375 9.042-8.288 12.553-14.95 3.545-6.695 6.675-15.261 10.023-26.964 1.694-5.946 2.477-11.104 2.477-15.69.007-5.294-1.082-9.893-3.082-13.622-.184-.34-.422-.592-.619-.912 4.334-25.937 21.195-151.704-60.06-148.574-19.16-20.902-67.932-47.03-121.929-10.451-59.005 39.974-69.51 132.639-52.793 155.236-1.266 1.34-2.45 2.891-3.409 4.702-2 3.729-3.096 8.328-3.089 13.622 0 4.599.789 9.757 2.483 15.69 4.477 15.595 8.525 25.665 13.758 33.055 2.62 3.667 5.593 6.614 8.832 8.859 1.966 1.367 4.008 2.415 6.069 3.347 5.906 27.346 20.27 44.594 30.271 55.719v22.324c.02.939-.449 2.654-2 4.872-2.259 3.307-6.695 7.267-11.853 10.614-5.137 3.368-10.988 6.219-15.894 7.948-6.376 2.245-15.554 4.763-25.598 8.308-15.07 5.341-32.353 13.037-46.192 26.849-13.874 13.765-23.726 33.945-23.645 61.624 0 3.525.157 7.172.477 10.955.204 2.354 1.034 4.307 2.034 5.974 1.912 3.102 4.504 5.504 7.756 7.954 5.688 4.225 13.595 8.369 23.862 12.472 30.72 12.207 82.683 23.563 152.14 23.583 56.433 0 101.36-7.539 132.666-16.881 15.663-4.688 27.904-9.791 36.694-14.853 4.409-2.558 7.954-5.069 10.757-7.797 1.402-1.375 2.626-2.817 3.64-4.477 1-1.667 1.83-3.62 2.034-5.974.313-3.776.47-7.41.47-10.928.015-18.449-4.272-33.554-11.362-45.624m-109.008-46.697c.347.231.735.394 1.089.626l-26.747 65.36-32.251-40.321 46.989-34.531c3.205 3.28 6.906 6.226 10.92 8.866M178.77 245.913l-.776-4.389-4.192-1.497c-2.667-.952-4.702-1.925-6.478-3.157-2.619-1.851-5-4.375-7.77-9.553-2.742-5.144-5.654-12.832-8.832-23.978-1.395-4.878-1.892-8.668-1.892-11.485.007-3.266.634-5.185 1.273-6.389.966-1.756 2.15-2.504 3.66-3.11.013-.007.027-.007.04-.014 12.329 11.432 28.536 44.975 28.536 44.975l-3.484-55.739s76.641-17.418 128.897-66.19c17.418 17.418 27.869 87.092 27.869 87.092l3.484 24.386 16.016-35.116c.538-.007 2.926.238 4.512 1.3.878.558 1.592 1.211 2.245 2.416.64 1.204 1.266 3.116 1.272 6.389.007 2.817-.497 6.599-1.885 11.485-4.226 14.887-8.015 23.542-11.486 28.346-1.742 2.422-3.334 3.946-5.103 5.185-1.776 1.232-3.81 2.204-6.478 3.157L334 241.524l-.769 4.389c-4.906 27.461-19.065 42.913-29.516 54.555l-1.966 2.184v28.196c.007 3.681 1.021 7.063 2.558 10.111l-48.309 35.504-48.39-35.558c1.551-3.021 2.613-6.369 2.626-10.057v-28.196l-1.966-2.184c-10.446-11.642-24.592-27.088-29.498-54.555m16.718 108.899a60 60 0 0 0 5.498-4.939l47.037 34.564-32.258 40.321-26.733-65.346c2.224-1.443 4.401-2.967 6.456-4.6m231.053 105.381c-.326.518-1.524 1.864-3.64 3.416-3.994 3.007-10.935 6.79-20.338 10.532-28.284 11.295-78.777 22.548-146.56 22.535-55.045 0-98.646-7.39-128.278-16.248-14.799-4.409-26.128-9.226-33.428-13.444-3.64-2.096-6.259-4.056-7.688-5.471-.633-.612-.98-1.068-1.156-1.32-.246-3.17-.388-6.232-.388-9.131.02-16.139 3.627-28.298 9.247-37.966 8.41-14.466 21.779-23.726 36.075-30.319 14.288-6.6 29.067-10.26 39.872-14.044 2.905-1.034 5.933-2.374 8.968-3.851l33.401 81.648 43.376-54.228 43.376 54.228 33.415-81.683c2.926 1.415 5.885 2.742 8.798 3.831 7.253 2.708 16.174 5.212 25.631 8.587 14.18 5.035 29.285 11.988 40.525 23.188 11.192 11.254 19.099 26.454 19.188 50.636-.001 2.886-.144 5.934-.396 9.104"/><circle cx="255.786" cy="474.4" r="6.532"/><circle cx="256.221" cy="433.903" r="6.532"/></svg>